<?xml version="1.0" encoding="utf-8"?>
<!-- Generator: Adobe Illustrator 18.1.0, SVG Export Plug-In . SVG Version: 6.00 Build 0)  -->
<svg version="1.1" id="Layer_1" xmlns="http://www.w3.org/2000/svg" xmlns:xlink="http://www.w3.org/1999/xlink" x="0px" y="0px"
	 viewBox="0 12 36 12" enable-background="new 0 12 36 12" xml:space="preserve">
<g>
	<g>
		<path fill="#FFFFFF" d="M33.6,16.1c-0.5-0.7-1.4-1.2-2.3-1.2c-0.9,0-1.8,0.4-2.3,1.2c-0.4,0.5-0.5,1.2-0.5,1.8
			c0,0.6,0.2,1.3,0.5,1.8c0.5,0.7,1.4,1.2,2.3,1.2c0.9,0,1.8-0.4,2.3-1.2c0.4-0.5,0.5-1.2,0.5-1.8C34.1,17.3,33.9,16.6,33.6,16.1z
			 M32.7,18.6c-0.2,0.6-0.7,1.2-1.4,1.2s-1.2-0.5-1.4-1.2c-0.1-0.2-0.1-0.5-0.1-0.7c0-0.3,0.1-0.5,0.1-0.7c0.2-0.6,0.7-1.2,1.4-1.2
			s1.2,0.5,1.4,1.2c0.1,0.2,0.1,0.4,0.1,0.7C32.8,18.2,32.8,18.4,32.7,18.6z M11.3,20.7c0,0.1-0.1,0.2-0.2,0.2h-1
			c-0.1,0-0.2-0.1-0.2-0.2v-8c0-0.1,0.1-0.2,0.2-0.2h1c0.1,0,0.2,0.1,0.2,0.2V20.7z M9.1,20.7c0,0.1-0.1,0.2-0.2,0.2h-1
			c-0.1,0-0.2-0.1-0.2-0.2v-8c0-0.1,0.1-0.2,0.2-0.2h1c0.1,0,0.2,0.1,0.2,0.2V20.7z M28.2,15.3V16c0,0.2-0.1,0.2-0.3,0.2
			c-1.1-0.3-1.8,0.3-1.8,1.3v3.2c0,0.1-0.1,0.2-0.2,0.2h-1c-0.1,0-0.2-0.1-0.2-0.2c0,0,0-3.2,0-3.3c0-0.9,0.4-1.4,0.7-1.7
			c0.4-0.4,1.1-0.7,1.8-0.7c0.1,0,0.5,0,0.6,0.1l0,0C28.1,15.1,28.2,15.1,28.2,15.3z M23.9,17.9c0-0.6-0.2-1.3-0.5-1.8
			c-0.5-0.7-1.4-1.2-2.3-1.2s-1.8,0.4-2.3,1.2c-0.7,1-0.7,2.6,0,3.6c0.5,0.7,1.4,1.2,2.3,1.2c0.6,0,1.2-0.2,1.6-0.5v0.7
			c0,1-0.8,1.2-1.4,1.2c-0.4,0-0.9,0-1.1-0.1c-0.2,0-0.3,0-0.3,0.2v0.9c0,0.1,0.1,0.1,0.2,0.2c1.3,0.1,2.1,0.1,2.7-0.3
			c0.5-0.3,0.7-0.7,0.9-1.2c0.1-0.4,0.2-0.8,0.2-1.2V17.9z M21.1,19.7c-0.7,0-1.2-0.5-1.4-1.2c-0.1-0.2-0.1-0.4-0.1-0.7
			c0-0.3,0.1-0.4,0.1-0.7c0.2-0.6,0.7-1.2,1.4-1.2c1.5,0,1.6,1.6,1.6,1.8C22.7,18.2,22.7,19.7,21.1,19.7z M6.9,17.4
			c0-0.8-0.2-1.4-0.5-1.8s-1.1-0.6-1.8-0.6s-1.3,0.2-1.9,0.5l-0.1,0.1l0,0l0.1,0.8c0,0.1,0.1,0.2,0.2,0.1c0.9-0.5,1.9-0.6,2.3-0.4
			C5.8,16.4,5.7,17,5.7,17s-0.9,0-1.3,0c-0.6,0-2.4,0.2-2.4,2l0,0l0,0c0,0.6,0.2,1.1,0.6,1.4c0.4,0.3,0.9,0.4,1.5,0.4h2.8
			c0.1,0,0.2-0.1,0.2-0.2L6.9,17.4z M5.7,19.9H4c-0.2-0.1-0.4-0.1-0.6-0.3s-0.3-0.4-0.3-0.5c0-0.3,0.2-0.9,1.3-0.9h1.3V19.9z
			 M14.9,14.9c-1.7,0-2.4,1.2-2.7,2.2c-0.1,0.3-0.1,0.5-0.1,0.8c0,0.6,0.2,1.3,0.5,1.8c0.5,0.7,1.4,1.1,2.3,1.2c0.9,0,1.5-0.1,2-0.4
			c0.1-0.1,0.1-0.1,0.1-0.3v-0.7c0-0.2-0.1-0.2-0.3-0.1c-0.5,0.4-1.1,0.5-1.9,0.4s-1.4-0.6-1.4-1.4h3.9c0.1,0,0.2-0.1,0.2-0.2
			C17.6,17.2,17.3,14.9,14.9,14.9z M13.6,17.4c0-0.5,0.4-1.3,1.3-1.3c0.5,0,1.3,0.4,1.3,1.3H13.6z"/>
	</g>
</g>
</svg>
