<?xml version="1.0" encoding="utf-8"?>
<!-- Generator: Adobe Illustrator 18.1.0, SVG Export Plug-In . SVG Version: 6.00 Build 0)  -->
<svg version="1.1" id="Layer_1" xmlns="http://www.w3.org/2000/svg" xmlns:xlink="http://www.w3.org/1999/xlink" x="0px" y="0px"
	 viewBox="0 12 36 12" enable-background="new 0 12 36 12" xml:space="preserve">
<g>
	<path fill="#FFFFFF" d="M30.1,22.2L30.1,22.2c2.1,0,3.2-1.5,3.2-4.2c0-1.4-0.3-2.4-0.8-3.1c-0.5-0.7-1.3-1-2.3-1l0,0
		c-2,0-3.2,1.5-3.2,4.2c0,1.4,0.3,2.4,0.8,3.1C28.3,21.8,29.1,22.2,30.1,22.2z M30.1,15.1L30.1,15.1c0.3,0,0.5,0.1,0.7,0.3
		c0.4,0.4,0.6,1.3,0.6,2.6c0,1.3-0.2,2.9-1.3,2.9c-1.1,0-1.3-1.6-1.3-2.9C28.8,16.7,29.1,15.1,30.1,15.1z"/>
	<path fill="#FFFFFF" d="M15.1,22l0.9,0c0.2,0,0.3,0,0.3-0.3l0-4.1c0-0.3,0-0.7,0-1c0,0,0-0.1,0-0.1c0.1,0.4,0.3,0.8,0.7,1.4
		l2.3,3.9c0.1,0.2,0.1,0.2,0.3,0.2l0.8,0c0.2,0,0.3,0,0.3-0.3l0-7.4c0-0.2-0.1-0.3-0.3-0.3l-0.9,0c-0.2,0-0.3,0-0.3,0.3l0,3.6
		c0,0.2,0,0.4,0,0.7c0,0.2,0,0.5,0,0.7c-0.1-0.4-0.4-0.9-0.7-1.5l-2.1-3.6c-0.1-0.1-0.1-0.2-0.3-0.2l-1,0c-0.2,0-0.3,0-0.3,0.3
		l0,7.4C14.8,21.9,14.9,22,15.1,22z"/>
	<path fill="#FFFFFF" d="M22.2,22l4.2,0h0c0.2,0,0.3,0,0.3-0.3l0-0.8c0-0.2-0.1-0.3-0.3-0.3l-2.7,0l0-2.2l2.1,0c0.2,0,0.3,0,0.3-0.3
		l0-0.8c0-0.1,0-0.2-0.1-0.2c0,0-0.1-0.1-0.2-0.1l-2.1,0l0-1.8l2.4,0c0.1,0,0.3,0,0.3-0.2l0.2-0.8c0,0,0,0,0,0c0,0,0-0.1,0-0.1
		c0-0.1-0.1-0.2-0.4-0.2l-4.1,0c-0.2,0-0.3,0-0.3,0.3l0,7.4C21.9,21.9,21.9,22,22.2,22z"/>
	<path fill="#FFFFFF" d="M6,22.1L6,22.1c1.2,0,2.1-0.5,2.1-0.8c0-0.1,0-0.1-0.1-0.2l-0.4-0.7c0-0.1-0.1-0.1-0.2-0.1
		c-0.1,0-0.2,0.1-0.4,0.1c-0.3,0.1-0.6,0.3-1,0.3c-0.6,0-1-0.3-1.2-0.8c-0.2-0.5-0.3-1.2-0.3-2.3c0-1.9,0.4-2.6,1.5-2.6
		c0.4,0,0.7,0.2,1,0.4c0.1,0.1,0.2,0.2,0.3,0.2c0.1,0,0.1-0.1,0.2-0.1L8,14.9c0.1-0.1,0.1-0.1,0.1-0.2c0-0.1-0.4-0.4-0.7-0.5
		c-0.5-0.2-1-0.3-1.4-0.4h0c-2.1,0-3.3,1.5-3.3,4.2C2.7,20.8,3.7,22.1,6,22.1z"/>
	<path fill="#FFFFFF" d="M9.4,22l4.2,0c0.2,0,0.3-0.1,0.3-0.3l0-0.8c0-0.2-0.1-0.3-0.3-0.3l-2.7,0l0-2.2l2.1,0c0.2,0,0.3,0,0.3-0.3
		l0-0.8c0-0.1,0-0.2-0.1-0.2c0,0-0.1-0.1-0.2-0.1l-2.1,0l0-1.8l2.4,0l0,0c0.1,0,0.3,0,0.3-0.2l0.3-0.8c0,0,0-0.1,0-0.1
		c0-0.2-0.1-0.2-0.4-0.2l-4.1,0c-0.2,0-0.3,0-0.3,0.3l0,7.4c0,0.1,0,0.2,0.1,0.2C9.2,21.9,9.3,22,9.4,22z"/>
</g>
</svg>
