<?xml version="1.0" encoding="utf-8"?>
<!-- Generator: Adobe Illustrator 18.1.0, SVG Export Plug-In . SVG Version: 6.00 Build 0)  -->
<svg version="1.1" id="Layer_1" xmlns="http://www.w3.org/2000/svg" xmlns:xlink="http://www.w3.org/1999/xlink" x="0px" y="0px"
	 viewBox="0 0 90 40" enable-background="new 0 0 90 40" xml:space="preserve">
<path fill="#FFFFFF" d="M47.8,19.8c-0.7,0-1.2,0.2-1.8,0.5v5.4c0.5,0,0.8,0,1.3,0c1.7,0,2-0.8,2-1.9v-2.6
	C49.3,20.4,49,19.8,47.8,19.8 M36.4,19.5c-1.2,0-1.5,0.7-1.5,1.5v0.5h2.9v-0.5C37.9,20.1,37.6,19.5,36.4,19.5 M14.4,25.1
	c0,0.6,0.3,1,1,1c0.7,0,1.1-0.2,1.7-0.5v-1.3h-1.6C14.7,24.3,14.4,24.4,14.4,25.1 M58.9,19.8c-1.2,0-1.6,0.6-1.6,1.5v3
	c0,0.8,0.4,1.5,1.6,1.5c1.2,0,1.6-0.7,1.6-1.5v-3C60.5,20.4,60.1,19.8,58.9,19.8 M8.5,28.4H5v-8.5H3.3V17H5v-1.8
	c0-2.4,1-3.8,3.8-3.8h2.3v2.9H9.7c-1.1,0-1.2,0.4-1.2,1.2l0,1.5h2.6l-0.3,2.9H8.5V28.4z M20.5,28.4h-2.9l-0.1-0.7
	c-1.3,0.7-2.5,0.9-3.3,0.9c-2.1,0-3.3-1.4-3.3-3.4c0-2.3,1.3-3.2,3.7-3.2H17v-0.5c0-1.2-0.1-1.5-2-1.5h-3l0.3-2.9h3.3
	c4,0,4.9,1.3,4.9,4.5V28.4z M30.4,20.1c-1.8-0.3-2.3-0.4-3.2-0.4c-1.6,0-2,0.3-2,1.7V24c0,1.3,0.5,1.7,2,1.7c0.9,0,1.4-0.1,3.2-0.4
	v2.8c-1.6,0.4-2.6,0.5-3.5,0.5c-3.8,0-5.3-2-5.3-4.8v-2c0-2.9,1.5-4.8,5.3-4.8c0.9,0,1.9,0.1,3.5,0.5V20.1z M41.4,23.7H35V24
	c0,1.3,0.5,1.7,2,1.7c1.4,0,2.3-0.1,4.1-0.4v2.8c-1.7,0.4-2.7,0.5-4.4,0.5c-3.8,0-5.3-2-5.3-4.8v-2.3c0-2.5,1.1-4.5,5-4.5
	c3.9,0,5,2,5,4.5V23.7z M52.8,23.8c0,2.8-0.8,4.8-5.6,4.8c-1.7,0-2.7-0.2-4.6-0.4V12.3l3.5-0.6v5.5c0.8-0.3,1.7-0.4,2.6-0.4
	c3.5,0,4.1,1.6,4.1,4.1V23.8z M64,23.8c0,2.4-1,4.7-5.1,4.7c-4.1,0-5.1-2.3-5.1-4.7v-2.3c0-2.4,1-4.7,5.1-4.7c4.1,0,5.1,2.3,5.1,4.7
	V23.8z M75.2,23.8c0,2.4-1,4.7-5.1,4.7c-4.1,0-5.1-2.3-5.1-4.7v-2.3c0-2.4,1-4.7,5.1-4.7c4.1,0,5.1,2.3,5.1,4.7V23.8z M86.7,28.4
	h-3.8L79.7,23v5.4h-3.5V12.3l3.5-0.6v10.3l3.2-5.1h3.8l-3.5,5.5L86.7,28.4z M70.1,19.8c-1.2,0-1.6,0.6-1.6,1.5v3
	c0,0.8,0.4,1.5,1.6,1.5c1.2,0,1.6-0.7,1.6-1.5v-3C71.7,20.4,71.3,19.8,70.1,19.8"/>
</svg>
