<?xml version="1.0" encoding="utf-8"?>
<!-- Generator: Adobe Illustrator 22.0.1, SVG Export Plug-In . SVG Version: 6.00 Build 0)  -->
<svg version="1.1" xmlns="http://www.w3.org/2000/svg" xmlns:xlink="http://www.w3.org/1999/xlink" x="0px" y="0px"
	 viewBox="0 0 1164.2 300.4" style="enable-background:new 0 0 1164.2 300.4;" xml:space="preserve">
<style type="text/css">
	.st0{fill:#F86210;}
	.st1{fill:#FFFFFF;}
</style>
<g id="Type">
	<path class="st0" d="M423.6,143.1l30.8-30.6c1.5-1.5,2.3-3.6,2.3-6.1c0-2.3-0.9-4.3-2.6-5.8c-1.6-1.5-3.6-2.3-5.8-2.3
		c-2.5,0-4.8,1-6.6,3l-43.6,44.3v-38.4c0-2.5-0.9-4.6-2.6-6.3c-1.7-1.7-3.9-2.6-6.3-2.6c-2.4,0-4.6,0.9-6.3,2.7
		c-1.7,1.7-2.5,3.8-2.5,6.3v86.4c0,2.5,0.9,4.6,2.6,6.2c1.7,1.7,3.8,2.6,6.2,2.6c2.4,0,4.5-0.8,6.3-2.5c1.7-1.7,2.7-3.8,2.7-6.3
		v-25.2l13.2-13.4l34.3,43.8c1.7,2.3,4.1,3.5,7,3.5c2.4,0,4.6-0.9,6.2-2.6c1.7-1.7,2.5-3.8,2.4-6.2c0-1.9-0.7-3.8-2.1-5.5
		L423.6,143.1z"/>
	<path class="st0" d="M549.9,98.3c-2.4,0-4.6,0.9-6.3,2.7c-1.7,1.7-2.5,3.8-2.5,6.3v55.7c0,5.1-1.2,9.4-3.4,12.9
		c-2.3,3.6-5.3,6.1-9.1,7.9c-3.8,1.8-8,2.7-12.4,2.7c-4.4,0-8.5-0.9-12.4-2.7c-3.8-1.8-6.8-4.4-9.1-7.9c-2.3-3.5-3.4-7.8-3.4-12.9
		v-55.7c0-2.5-0.9-4.6-2.6-6.3c-1.7-1.7-3.9-2.6-6.3-2.6c-2.4,0-4.6,0.9-6.3,2.7c-1.7,1.7-2.5,3.8-2.5,6.3v55.3
		c0,8.8,2.1,16.3,6.3,22.5c4.2,6.1,9.6,10.7,16.1,13.7c6.5,2.9,13.3,4.4,20.2,4.4s13.8-1.5,20.2-4.4c6.6-3,12-7.6,16.1-13.7
		c4.2-6.1,6.3-13.7,6.3-22.5v-55.3c0-2.5-0.9-4.6-2.6-6.3C554.5,99.2,552.4,98.3,549.9,98.3z"/>
	<path class="st0" d="M643.9,103.8C638,100.6,630.3,99,621,99h-31.9c-2.4,0-4.6,0.9-6.3,2.7c-1.7,1.7-2.5,3.9-2.5,6.3v85.7
		c0,2.5,0.9,4.6,2.6,6.2c1.7,1.7,3.8,2.6,6.2,2.6c2.4,0,4.5-0.8,6.3-2.5c1.7-1.7,2.7-3.8,2.7-6.3v-27.5h23c9.2,0,16.9-1.6,22.9-4.8
		c6-3.2,10.4-7.4,13.1-12.5c2.6-5,3.9-10.5,3.9-16.3c0-5.8-1.3-11.3-3.9-16.3C654.4,111.2,649.9,107,643.9,103.8z M643.2,132.6
		c0,4.7-1.6,8.6-5,11.8c-3.4,3.2-9.6,4.8-18.4,4.8h-21.7V116h21.7c8.8,0,15,1.6,18.4,4.8C641.5,124,643.2,127.8,643.2,132.6z"/>
	<path class="st0" d="M777.1,99h-69.7c-2.3,0-4.4,0.9-6,2.5c-1.6,1.6-2.4,3.7-2.4,6c0,2.4,0.8,4.4,2.4,6c1.6,1.6,3.6,2.4,6,2.4h26.1
		v77.7c0,2.5,0.9,4.6,2.6,6.2c1.7,1.7,3.8,2.6,6.2,2.6c2.4,0,4.5-0.8,6.3-2.5c1.7-1.7,2.7-3.8,2.7-6.3v-77.7h25.9
		c2.3,0,4.4-0.8,6-2.4c1.6-1.6,2.5-3.7,2.5-6c0-2.4-0.8-4.4-2.5-6C781.5,99.8,779.5,99,777.1,99z"/>
	<path class="st0" d="M861,115.9c2.3,0,4.4-0.8,6-2.4c1.6-1.6,2.5-3.7,2.5-6c0-2.4-0.8-4.4-2.5-6c-1.6-1.6-3.7-2.5-6-2.5h-56.1
		c-2.4,0-4.6,0.9-6.3,2.7c-1.7,1.7-2.5,3.8-2.5,6.3v85c0,2.5,0.9,4.6,2.6,6.2c1.7,1.7,3.8,2.6,6.2,2.6H861c2.3,0,4.4-0.8,6-2.4
		c1.6-1.6,2.5-3.7,2.5-6c0-2.4-0.8-4.4-2.5-6c-1.6-1.6-3.7-2.5-6-2.5h-47.2v-26.1H856c2.3,0,4.4-0.8,6-2.4c1.6-1.6,2.5-3.7,2.5-6
		c0-2.4-0.8-4.4-2.5-6c-1.6-1.6-3.7-2.5-6-2.5h-42.2v-25.9H861z"/>
	<path class="st0" d="M962.3,146.6c3.4-5,5.1-10.6,5.1-16.7c0-9.2-3.5-16.8-10.4-22.5c-6.8-5.6-16.9-8.4-30.1-8.4h-32.6
		c-2.4,0-4.6,0.9-6.3,2.7c-1.7,1.7-2.5,3.8-2.5,6.3v85.7c0,2.5,0.9,4.6,2.6,6.2c1.7,1.7,3.8,2.6,6.2,2.6c2.4,0,4.5-0.8,6.3-2.5
		c1.7-1.7,2.7-3.8,2.7-6.3v-30h26.5c5.7,0,10,1.3,12.7,4c2.8,2.8,4.6,5.9,5.3,9.4c0.8,3.8,1.2,8,1.2,12.4v4.2c0,2.5,0.8,4.7,2.5,6.3
		c1.6,1.6,3.8,2.5,6.5,2.5c2.4,0,4.6-0.9,6.2-2.6c1.7-1.7,2.6-3.8,2.6-6.2v-6.4c0-6.6-1.3-13.4-3.9-20.3c-2-5.3-5.3-9.2-9.7-11.8
		C956.8,153,959.9,150.1,962.3,146.6z M949.6,130.9c0,4.9-2,8.7-6,11.4c-4.3,2.9-10.2,4.3-17.7,4.3h-22.8V116h22.1
		c9.2,0,15.7,1.3,19.3,4C948,122.5,949.6,126.1,949.6,130.9z"/>
	<path class="st0" d="M1037.3,105.5c-0.9-2-2.2-3.7-3.9-5.1c-1.8-1.4-4-2.1-6.5-2.1h-1.4c-2.5,0-4.7,0.7-6.5,2.2
		c-1.7,1.3-3,3-3.9,5.1l-35.7,84.3c-0.6,1.4-0.9,2.7-0.9,3.8c0,2.4,0.8,4.5,2.5,6.2c1.7,1.7,3.8,2.6,6.3,2.6c1.8,0,3.5-0.5,4.9-1.5
		c1.5-1,2.6-2.3,3.4-4l8.5-20.3h44.3l8.5,20.4c0.8,1.6,1.9,3,3.4,3.9c1.5,1,3.1,1.5,4.9,1.5c2.6,0,4.7-0.9,6.4-2.6
		c1.6-1.7,2.4-3.8,2.4-6.2c0-1.1-0.3-2.3-0.9-3.8L1037.3,105.5z M1041.4,160H1011l15.2-36.5L1041.4,160z"/>
	<path class="st0" d="M1161.5,187.3c-1.6-1.6-3.7-2.5-6-2.5h-49.6l54.5-67.4c0.8-1,1.5-2.1,2-3.4c0.5-1.3,0.8-2.6,0.8-3.9
		c0-3.1-1-5.7-3-7.8c-2-2.2-4.7-3.3-8.1-3.3h-60.8c-2.3,0-4.4,0.9-6.1,2.6c-1.6,1.7-2.4,3.7-2.4,6.1c0,2.4,0.8,4.4,2.5,6
		c1.6,1.6,3.7,2.5,6,2.5h48.7l-55.2,68.2c-1.5,1.8-2.2,4.1-2.2,6.7c0,2.9,1,5.4,3.1,7.5c2.1,2.1,4.6,3.1,7.5,3.1h62.3
		c2.3,0,4.4-0.8,6-2.4c1.6-1.6,2.5-3.7,2.5-6C1163.9,191,1163.1,188.9,1161.5,187.3z"/>
</g>
<g id="Logo">
	<path class="st0" d="M150.1,0.3c-41.8,0-79.6,16.8-106.8,44.4l55.4,145.5h54.4c32.9,0,62.8-16.5,80-44.7l18.6,11.5
		c-10.1,16.6-24.4,30.3-41.2,40c-17.4,10-37.2,15-57.4,15H83.7L28.3,66.1h-2.7c-16.1,24-25.5,53-25.5,84
		c0,82.9,67.2,150.2,150,150.2s150-67.1,150-150S233,0.3,150.1,0.3z M153.3,169.2c-40.1,0-40.1,0-40.1,0L74.6,74
		c0,0,96.5,12.7,151.3,22.7C225.9,136.8,193.4,169.2,153.3,169.2z M97.8,267c-9.4,0-17.1-7.6-17.1-17.1c0-9.4,7.6-17.1,17.1-17.1
		s17.1,7.6,17.1,17.1C114.8,259.4,107.2,267,97.8,267z M208.8,267c-9.4,0-17.1-7.6-17.1-17.1c0-9.4,7.6-17.1,17.1-17.1
		s17.1,7.6,17.1,17.1C225.8,259.4,218.2,267,208.8,267z"/>
	<path class="st1" d="M113.2,169.2c0,0,0,0,40.1,0s72.6-32.2,72.6-72.3c-54.8-10-151.3-23-151.3-23L113.2,169.2z"/>
	<path class="st0" d="M43.3,44.3H14.1v21.8h11.4C30.8,58.8,36.8,51,43.3,44.3L43.3,44.3z"/>
	<path class="st1" d="M83.7,212h69.4c20.2,0,40-5,57.4-15c16.8-9.7,31.1-23.4,41.2-40l-18.6-11.6c-17.2,28.2-47.1,44.8-80,44.8H98.7
		L43.3,44.4C36.8,51,30.8,58.8,25.6,66.1h2.7L83.7,212z"/>
	<ellipse class="st1" cx="97.8" cy="250" rx="17.1" ry="17.1"/>
	<ellipse class="st1" cx="208.8" cy="250" rx="17.1" ry="17.1"/>
</g>
</svg>
