<?xml version="1.0" encoding="utf-8"?>
<!-- Generator: Adobe Illustrator 21.0.0, SVG Export Plug-In . SVG Version: 6.00 Build 0)  -->
<svg version="1.1" id="Layer_1" xmlns="http://www.w3.org/2000/svg" xmlns:xlink="http://www.w3.org/1999/xlink" x="0px" y="0px"
	 viewBox="0 0 110 50" style="enable-background:new 0 0 110 50;" xml:space="preserve">
<style type="text/css">
	.st0{fill:#F7941E;}
	.st1{fill:#FFFFFF;}
</style>
<g>
	<path class="st0" d="M88.59,23.22c-0.53-8.43-4.97-13.14-5.95-17.13c-1.15-4.88-0.89-5.59-0.89-5.59L6.48,5.29
		c0,0,0.18,0.62-0.27,6.13c-0.53,4.79-4.7,7.99-4.08,17.22c0.53,7.99,4.7,10.74,6.13,15.45c1.24,4.26,1.24,5.24,1.24,5.41l74.92-4.7
		c0,0-0.27-0.27,0.36-5.06c0.27-1.51,0.71-2.84,1.24-4.08c-0.8-0.27-1.33-0.98-1.33-1.86c0-1.07,0.89-2.04,2.04-2.04
		c0.27,0,0.53,0.09,0.8,0.18C88.14,29.62,88.76,26.95,88.59,23.22z"/>
	<path class="st0" d="M86.73,35.86c1.07,0,2.04-0.89,2.04-2.04c0-0.8-0.53-1.51-1.24-1.86c-0.44,1.33-0.98,2.49-1.42,3.73
		C86.29,35.77,86.47,35.86,86.73,35.86z M98.62,24.2c-1.95,0-2.93,1.33-3.55,1.95c0-1.07-0.18-1.95-0.44-1.95
		c-0.09,0-0.18,0-0.27,0.09L92.58,25c-0.09,0-0.27,0.09-0.27,0.27c0,0.27,0.18,0.8,0.18,1.33c0,0.27,0,0.62-0.09,1.15l-2.49,11.81
		L89.83,40c0,0.09,0,0.18,0.09,0.18s0.27,0,0.36-0.09l1.95-0.36c0.36-0.09,0.36-0.18,0.36-0.36l0.89-3.99
		c0.36,0.18,0.8,0.53,1.95,0.53c3.82,0,5.59-4.79,5.59-8.34C101.01,25.27,100.13,24.2,98.62,24.2z M95.33,33.79
		c-0.71,0-1.24-0.36-1.42-0.44l0.8-3.64c0.36-1.6,1.33-3.28,2.66-3.28c0.71,0,1.07,0.53,1.07,1.51
		C98.35,30.24,97.55,33.79,95.33,33.79z M107.85,20.21c0-0.09,0.09-0.27,0.09-0.44c0-0.18,0-0.18-0.09-0.18s-0.18,0-0.27,0.09
		l-1.95,0.36c-0.36,0.09-0.36,0.18-0.36,0.36l-2.4,11.27c-0.18,0.8-0.27,1.51-0.27,2.31c0,1.42,0.89,1.86,2.13,1.86
		c0.89,0,2.22-0.27,2.22-0.62v-0.18l-0.18-1.51c0-0.09-0.09-0.18-0.18-0.18c-0.09,0-0.44,0.18-0.8,0.18s-0.53-0.09-0.53-0.44
		c0-0.27,0.18-0.89,0.27-1.42C105.54,31.66,107.85,20.21,107.85,20.21z"/>
	<path class="st1" d="M16.06,35.92c-5.41,0-7.99-3.2-7.9-9.94c0-6.39,2.66-10.21,7.99-10.21c2.31,0,5.06,1.51,5.06,2.04
		c0,0.09,0,0.27-0.18,0.44l-1.15,1.6c-0.09,0.18-0.27,0.27-0.36,0.27c-0.53,0-1.51-1.33-3.2-1.33c-2.66,0-3.82,1.6-3.82,6.48
		c0,4.7,0.62,7.63,3.82,7.63c1.69,0,2.84-1.07,3.46-1.07c0.09,0,0.18,0.09,0.36,0.27l0.98,1.6c0.09,0.18,0.18,0.27,0.18,0.44
		C21.12,34.59,19.08,35.92,16.06,35.92z M35.15,17.01l-0.62,1.86c-0.09,0.44-0.44,0.44-0.71,0.44h-5.95v4.62h5.24
		c0.53,0,0.62,0.09,0.62,0.62v1.86c0,0.53-0.09,0.62-0.62,0.62h-5.24v5.5h6.57c0.53,0,0.62,0.09,0.62,0.62v1.86
		c0,0.53-0.09,0.62-0.62,0.62H24.32c-0.53,0-0.62-0.09-0.62-0.62V16.92c0-0.53,0.09-0.62,0.62-0.62h10.12c0.62,0,0.8,0.09,0.8,0.27
		C35.24,16.83,35.24,16.83,35.15,17.01z M51.21,35.56h-2.04c-0.44,0-0.53-0.09-0.71-0.36l-5.59-9.5c-0.89-1.6-1.42-2.57-1.78-3.82
		h-0.09c0,0.36,0.09,1.78,0.09,3.11v10.03c0,0.53-0.09,0.62-0.62,0.62h-2.22c-0.53,0-0.62-0.09-0.62-0.62l0.09-17.93
		c0-0.53,0.09-0.62,0.62-0.62h2.49c0.44,0,0.53,0.09,0.71,0.36l5.06,8.7c0.89,1.51,1.42,2.93,1.78,4.08h0.09
		c0-0.89-0.09-2.84-0.09-3.64V17.1c0-0.53,0.09-0.62,0.62-0.62h2.22c0.53,0,0.62,0.09,0.62,0.62l-0.09,17.93
		C51.84,35.47,51.75,35.56,51.21,35.56z M66.22,17.1l-0.62,1.86c-0.09,0.44-0.44,0.44-0.71,0.44h-5.95v4.62h5.24
		c0.53,0,0.62,0.09,0.62,0.62v1.86c0,0.53-0.09,0.62-0.62,0.62h-5.24v5.5h6.57c0.53,0,0.62,0.09,0.62,0.62v1.86
		c0,0.53-0.09,0.62-0.62,0.62H55.39c-0.53,0-0.62-0.09-0.62-0.62V17.01c0-0.53,0.09-0.62,0.62-0.62h10.12c0.62,0,0.8,0.09,0.8,0.27
		C66.31,16.92,66.22,16.92,66.22,17.1z M74.74,36.1c-4.79,0-7.63-3.28-7.63-10.03s2.93-10.03,7.63-10.03c4.7,0,7.63,3.28,7.63,10.12
		C82.37,32.81,79.53,36.1,74.74,36.1z M74.83,18.88c-2.31,0-3.28,2.75-3.28,7.1s0.98,7.1,3.28,7.1s3.28-2.75,3.28-7.1
		S77.13,18.96,74.83,18.88z"/>
</g>
</svg>
