<?xml version="1.0" encoding="UTF-8"?>
<svg enable-background="new 0 0 130 105" version="1.1" viewBox="0 0 130 105" xml:space="preserve" xmlns="http://www.w3.org/2000/svg">
<style type="text/css">
	.st0{fill:#FFFFFF;fill-opacity:0;}
	.st1{fill:#A6A6A6;}
	.st2{fill:#FFFFFF;}
	.st3{fill:url(#d);}
	.st4{fill:url(#c);}
	.st5{fill:url(#b);}
	.st6{fill:url(#a);}
	.st7{opacity:0.2;enable-background:new    ;}
	.st8{opacity:0.12;enable-background:new    ;}
	.st9{opacity:0.25;fill:#FFFFFF;enable-background:new    ;}
	.st10{fill:#FFFFFF;stroke:#FFFFFF;stroke-width:0.2;stroke-miterlimit:10;}
	.st11{fill:#777777;}
	.st12{fill:url(#SVGID_5_);}
	.st13{fill:url(#SVGID_6_);}
	.st14{fill:url(#SVGID_7_);}
	.st15{fill:url(#SVGID_8_);}
	.st16{fill:#269FD9;}
	.st17{fill:url(#SVGID_9_);}
	.st18{fill:url(#SVGID_10_);}
	.st19{fill:url(#SVGID_11_);}
	.st20{fill:url(#SVGID_12_);}
	.st21{fill:none;stroke:#259ED9;stroke-miterlimit:10;}
</style>
		<path class="st11" d="m64.3 15.4c-2.5 0-4.6 1.9-4.6 4.6s2.1 4.6 4.6 4.6 4.6-2 4.6-4.6c0-2.7-2.1-4.6-4.6-4.6zm0 7.4c-1.4 0-2.6-1.2-2.6-2.8 0-1.7 1.2-2.8 2.6-2.8s2.6 1.1 2.6 2.8c0 1.6-1.2 2.8-2.6 2.8zm-10.1-7.4c-2.5 0-4.6 1.9-4.6 4.6s2.1 4.6 4.6 4.6 4.6-2 4.6-4.6c0-2.7-2.1-4.6-4.6-4.6zm0 7.4c-1.4 0-2.6-1.2-2.6-2.8 0-1.7 1.2-2.8 2.6-2.8s2.6 1.1 2.6 2.8c0 1.6-1.2 2.8-2.6 2.8zm-12-6v2h4.7c-0.1 1.1-0.5 1.9-1.1 2.5-0.7 0.7-1.7 1.4-3.6 1.4-2.9 0-5.1-2.3-5.1-5.2s2.2-5.2 5.1-5.2c1.6 0 2.7 0.6 3.5 1.4l1.4-1.4c-1.2-1.1-2.7-2-4.9-2-3.9 0-7.3 3.2-7.3 7.1s3.3 7.1 7.3 7.1c2.1 0 3.7-0.7 5-2s1.7-3.1 1.7-4.6c0-0.5 0-0.9-0.1-1.2h-6.6zm49 1.5c-0.4-1-1.6-2.9-3.9-2.9-2.4 0-4.3 1.9-4.3 4.6 0 2.6 2 4.6 4.6 4.6 2.1 0 3.3-1.3 3.8-2l-1.6-1c-0.5 0.8-1.2 1.3-2.3 1.3-1 0-1.8-0.5-2.2-1.4l6.2-2.5-0.3-0.7zm-6.2 1.6c-0.1-1.8 1.4-2.7 2.4-2.7 0.8 0 1.5 0.4 1.7 1l-4.1 1.7zm-5 4.4h2v-13.5h-2v13.5zm-3.4-7.9c-0.5-0.5-1.4-1-2.5-1-2.3 0-4.4 2-4.4 4.6s2.1 4.6 4.4 4.6c1.1 0 2-0.5 2.4-1h0.1v0.7c0 1.8-0.9 2.7-2.5 2.7-1.2 0-2-0.9-2.3-1.6l-1.7 0.6c0.5 1.2 1.8 2.7 4.1 2.7 2.4 0 4.4-1.4 4.4-4.8v-8.3h-1.9v0.8zm-2.3 6.4c-1.4 0-2.6-1.2-2.6-2.8s1.2-2.8 2.6-2.8 2.5 1.2 2.5 2.8-1.1 2.8-2.5 2.8zm26.4-12h-4.8v13.5h2v-5.1h2.8c2.2 0 4.4-1.6 4.4-4.2s-2.1-4.2-4.4-4.2zm0.1 6.5h-2.9v-4.6h2.9c1.5 0 2.4 1.3 2.4 2.3-0.1 1-0.9 2.3-2.4 2.3zm12.4-1.9c-1.5 0-3 0.6-3.6 2.1l1.8 0.7c0.4-0.7 1.1-1 1.8-1 1 0 2.1 0.6 2.1 1.7v0.1c-0.4-0.2-1.1-0.5-2.1-0.5-1.9 0-3.9 1.1-3.9 3 0 1.8 1.6 3 3.4 3 1.4 0 2.1-0.6 2.6-1.3h0.1v1h1.9v-5.2c0.1-2.3-1.7-3.6-4.1-3.6zm-0.2 7.4c-0.7 0-1.6-0.3-1.6-1.1 0-1 1.1-1.4 2.1-1.4 0.9 0 1.3 0.2 1.8 0.5-0.1 1.1-1.1 2-2.3 2zm11.5-7.1l-2.3 5.9h-0.1l-2.4-5.9h-2.2l3.6 8.2-2.1 4.6h2.1l5.6-12.8h-2.2zm-18.2 8.6h2v-13.5h-2v13.5z"/>
			<linearGradient id="d" x1="15.549" x2="-.4949" y1="55.294" y2="39.251" gradientTransform="matrix(1 0 0 -1 0 62)" gradientUnits="userSpaceOnUse">
			<stop stop-color="#00A0FF" offset="0"/>
			<stop stop-color="#00A1FF" offset=".0065744"/>
			<stop stop-color="#00BEFF" offset=".2601"/>
			<stop stop-color="#00D2FF" offset=".5122"/>
			<stop stop-color="#00DFFF" offset=".7604"/>
			<stop stop-color="#00E3FF" offset="1"/>
		</linearGradient>
		<path class="st3" d="m4.7 5.6c-0.3 0.3-0.5 0.7-0.5 1.3v21.1c0 0.6 0.2 1 0.4 1.3l0.1 0.1 11.8-11.8v-0.2l-11.8-11.8z"/>
			<linearGradient id="c" x1="27.054" x2="3.9219" y1="44.5" y2="44.5" gradientTransform="matrix(1 0 0 -1 0 62)" gradientUnits="userSpaceOnUse">
			<stop stop-color="#FFE000" offset="0"/>
			<stop stop-color="#FFBD00" offset=".4087"/>
			<stop stop-color="#FFA500" offset=".7754"/>
			<stop stop-color="#FF9C00" offset="1"/>
		</linearGradient>
		<path class="st4" d="m20.5 21.6l-3.9-3.9v-0.2l3.9-3.9 0.1 0.1 4.7 2.7c1.3 0.8 1.3 2 0 2.8l-4.8 2.4z"/>
			<linearGradient id="b" x1="18.443" x2="-3.3137" y1="42.306" y2="20.55" gradientTransform="matrix(1 0 0 -1 0 62)" gradientUnits="userSpaceOnUse">
			<stop stop-color="#FF3A44" offset="0"/>
			<stop stop-color="#C31162" offset="1"/>
		</linearGradient>
		<path class="st5" d="m20.6 21.5l-4-4-11.9 11.9c0.4 0.5 1.2 0.5 2 0.1l13.9-8"/>
			<linearGradient id="a" x1="1.6848" x2="11.4" y1="63.452" y2="53.737" gradientTransform="matrix(1 0 0 -1 0 62)" gradientUnits="userSpaceOnUse">
			<stop stop-color="#32A071" offset="0"/>
			<stop stop-color="#2DA771" offset=".0685"/>
			<stop stop-color="#15CF74" offset=".4762"/>
			<stop stop-color="#06E775" offset=".8009"/>
			<stop stop-color="#00F076" offset="1"/>
		</linearGradient>
		<path class="st6" d="m20.6 13.5l-14-7.9c-0.8-0.5-1.5-0.4-2 0.1l11.9 11.9 4.1-4.1z"/>
			<path class="st11" d="m21.4 53.4c0-3.5 2.9-5.2 3-5.3-1.6-2.4-4.2-2.7-5.1-2.7-2.1-0.2-4.2 1.3-5.3 1.3s-2.8-1.3-4.6-1.2c-2.3 0-4.5 1.4-5.7 3.5-2.5 4.2-0.6 10.5 1.7 13.9 1.2 1.7 2.5 3.6 4.3 3.5s2.4-1.1 4.5-1.1 2.7 1.1 4.6 1.1 3.1-1.7 4.2-3.4c1.4-1.9 1.9-3.8 1.9-3.9 0.1-0.2-3.5-1.5-3.5-5.7z"/>
			<path class="st11" d="m17.9 43.1c0.9-1.2 1.6-2.8 1.4-4.4-1.4 0.1-3.1 0.9-4.1 2.1-0.9 1-1.7 2.7-1.5 4.3 1.6 0.1 3.2-0.8 4.2-2z"/>
		<path class="st11" d="m48.6 61h-2.5l-1.3-4.2h-4.7l-1.3 4.2h-2.4l4.6-14.4h2.9l4.7 14.4zm-4.2-6l-1.2-3.8c-0.1-0.4-0.4-1.3-0.7-2.7-0.1 0.6-0.4 1.5-0.7 2.7l-1.3 3.8h3.9z"/>
		<path class="st11" d="m60.5 55.7c0 1.8-0.5 3.2-1.4 4.2-0.9 0.9-1.9 1.4-3.2 1.4-1.4 0-2.4-0.5-2.9-1.5v5.5h-2.3v-11.2c0-1.1 0-2.2-0.1-3.4h2l0.1 1.6c0.8-1.2 1.9-1.9 3.5-1.9 1.2 0 2.2 0.5 3.1 1.5 0.8 0.9 1.2 2.2 1.2 3.8zm-2.3 0.1c0-1-0.2-1.8-0.7-2.5s-1.2-1-2-1c-0.6 0-1.1 0.2-1.5 0.6-0.5 0.4-0.8 0.9-0.9 1.5-0.1 0.3-0.1 0.5-0.1 0.7v1.7c0 0.8 0.2 1.4 0.7 1.9s1.1 0.8 1.8 0.8c0.9 0 1.5-0.3 2-1 0.4-0.7 0.7-1.6 0.7-2.7z"/>
		<path class="st11" d="m72.5 55.7c0 1.8-0.5 3.2-1.4 4.2-0.9 0.9-1.9 1.4-3.2 1.4-1.4 0-2.4-0.5-2.9-1.5v5.5h-2.3v-11.2c0-1.1 0-2.2-0.1-3.4h2l0.1 1.6c0.8-1.2 1.9-1.9 3.5-1.9 1.2 0 2.2 0.5 3.1 1.5 0.7 0.9 1.2 2.2 1.2 3.8zm-2.4 0.1c0-1-0.2-1.8-0.7-2.5s-1.2-1-2-1c-0.6 0-1.1 0.2-1.5 0.6-0.5 0.4-0.8 0.9-0.9 1.5-0.1 0.3-0.1 0.5-0.1 0.7v1.7c0 0.8 0.2 1.4 0.7 1.9s1.1 0.8 1.8 0.8c0.9 0 1.5-0.3 2-1s0.7-1.6 0.7-2.7z"/>
		<path class="st11" d="m85.8 57c0 1.2-0.4 2.2-1.3 3s-2.2 1.3-3.9 1.3c-1.5 0-2.8-0.3-3.7-0.9l0.5-1.9c1 0.6 2.1 0.9 3.3 0.9 0.9 0 1.5-0.2 2-0.6s0.7-0.9 0.7-1.6c0-0.6-0.2-1.1-0.6-1.5s-1.1-0.8-2-1.1c-2.5-0.9-3.8-2.3-3.8-4.1 0-1.2 0.4-2.2 1.3-2.9 0.9-0.8 2.1-1.1 3.5-1.1 1.3 0 2.4 0.2 3.3 0.7l-0.4 1.8c-0.8-0.4-1.7-0.7-2.8-0.7-0.8 0-1.4 0.2-1.9 0.6-0.4 0.4-0.6 0.8-0.6 1.3 0 0.6 0.2 1 0.7 1.4 0.4 0.3 1.1 0.7 2.1 1.1 1.2 0.5 2.1 1.1 2.7 1.8s0.9 1.5 0.9 2.5z"/>
		<path class="st11" d="m93.4 52.4h-2.5v5c0 1.3 0.4 1.9 1.3 1.9 0.4 0 0.8 0 1-0.1l0.1 1.8c-0.5 0.2-1.1 0.3-1.8 0.3-0.9 0-1.6-0.3-2.1-0.8-0.5-0.6-0.8-1.5-0.8-2.8v-5.2h-1.5v-1.7h1.5v-1.9l2.3-0.7v2.6h2.5v1.6z"/>
		<path class="st11" d="m104.9 55.7c0 1.6-0.5 2.9-1.4 3.9-1 1.1-2.2 1.6-3.8 1.6-1.5 0-2.7-0.5-3.6-1.5s-1.4-2.3-1.4-3.8c0-1.6 0.5-2.9 1.4-4 0.9-1 2.2-1.5 3.8-1.5 1.5 0 2.7 0.5 3.7 1.5 0.9 1 1.3 2.3 1.3 3.8zm-2.4 0.1c0-1-0.2-1.8-0.6-2.5-0.5-0.8-1.2-1.2-2.1-1.2s-1.6 0.4-2.1 1.2c-0.4 0.7-0.6 1.5-0.6 2.5s0.2 1.8 0.6 2.5c0.5 0.8 1.2 1.2 2.1 1.2s1.6-0.4 2.1-1.3c0.4-0.6 0.6-1.4 0.6-2.4z"/>
		<path class="st11" d="m112.4 52.7c-0.2 0-0.5-0.1-0.7-0.1-0.8 0-1.4 0.3-1.9 0.9-0.4 0.5-0.6 1.2-0.6 2.1v5.4h-2.3v-7.1c0-1.2 0-2.3-0.1-3.3h2l0.1 2h0.1c0.2-0.7 0.6-1.2 1.2-1.6 0.5-0.4 1.1-0.6 1.7-0.6h0.6c-0.1 0.1-0.1 2.3-0.1 2.3z"/>
		<path class="st11" d="m122.7 55.3c0 0.4 0 0.8-0.1 1h-6.9c0 1 0.4 1.8 1 2.4 0.6 0.5 1.3 0.7 2.3 0.7s2-0.2 2.8-0.5l0.4 1.6c-1 0.4-2.1 0.6-3.5 0.6-1.6 0-2.9-0.5-3.8-1.4s-1.4-2.2-1.4-3.8 0.4-2.9 1.3-3.9c0.9-1.1 2.1-1.7 3.6-1.7s2.6 0.6 3.4 1.7c0.6 1 0.9 2 0.9 3.3zm-2.2-0.6c0-0.7-0.1-1.3-0.4-1.8-0.4-0.6-1-1-1.8-1s-1.4 0.3-1.8 0.9c-0.4 0.5-0.6 1.1-0.7 1.8l4.7 0.1z"/>
				<path class="st16" d="m14.5 75.2c-1.1 0.4-1.9 0.7-1.9 2.8v1l0.7-0.1v-0.9c0-1.4 0.4-1.7 1.3-2.1 0-0.3-0.1-0.6-0.1-0.7z"/>
				<path class="st16" d="m16.4 74.7c0 0.2 0.1 0.4 0.1 0.7 1.7-0.2 1.7 0.5 1.7 1.9v0.5l0.7-0.1v-0.4c0-2.3-0.4-2.9-2.5-2.6z"/>
				<path class="st16" d="m9.6 79.6v-3c0-1.9 1-2.5 2.7-2.9 2.7-0.6 2.9 1.1 2.9 2.2v2.6l0.7-0.1v-2.4c0-2.1-0.7-3.7-3.7-3-1.6 0.4-3.3 0.8-3.3 3.5v3.2l0.7-0.1z"/>
			<path class="st16" d="m22.2 77.9l-18.2 3.6v13.2l18.2 3.6 3.6-1.3v-17.8l-3.6-1.3zm-10.3 14.1l-4-0.6v-3.3h4v3.9zm0-4.4h-4v-3.1l4-0.6v3.7zm5.6 5.2l-5.1-0.8v-3.9h5.1v4.7zm0-5.2h-5.1v-3.7l5.1-0.7v4.4z"/>
		<path class="st11" d="m48.9 86.6h-2.3l-2.2-8c-0.1-0.4-0.2-0.8-0.2-1.2 0 0.2 0 0.4-0.1 0.7 0 0.3-0.1 0.4-0.1 0.5l-2.2 8h-2.3l-3.2-11.5h2.1l2.1 8.3c0.1 0.2 0.1 0.7 0.2 1.2 0-0.3 0.1-0.7 0.2-1.3l2.3-8.3h2l2.2 8.4c0.1 0.3 0.1 0.7 0.2 1.1 0-0.4 0.1-0.8 0.2-1.2l2.1-8.4h2l-3 11.7z"/>
		<path class="st11" d="m55.6 75.4c0 0.3-0.1 0.6-0.3 0.8s-0.5 0.3-0.8 0.3-0.6-0.1-0.8-0.3-0.3-0.5-0.3-0.8 0.1-0.6 0.3-0.8 0.5-0.3 0.8-0.3 0.6 0.1 0.8 0.3c0.2 0.3 0.3 0.5 0.3 0.8zm-2.1 11.2v-8.2h1.9v8.2h-1.9z"/>
		<path class="st11" d="m63.3 86.6v-4.6c0-0.8-0.1-1.3-0.4-1.7s-0.7-0.6-1.3-0.6-1 0.2-1.4 0.6-0.5 1-0.5 1.6v4.7h-1.9v-8.2h1.9v1.3c0.6-1 1.5-1.5 2.7-1.5 0.9 0 1.5 0.3 2 0.8 0.5 0.6 0.7 1.4 0.7 2.5v5.1h-1.8z"/>
		<path class="st11" d="m73 86.6v-1.3c-0.6 1-1.5 1.5-2.7 1.5-1 0-1.9-0.4-2.5-1.1s-0.9-1.7-0.9-3c0-1.4 0.3-2.5 1-3.3s1.6-1.2 2.7-1.2c0.5 0 1 0.1 1.4 0.3s0.7 0.5 1 0.9v-5h1.9v12.2h-1.9zm0-4.8c0-0.6-0.2-1.1-0.6-1.5s-0.9-0.6-1.4-0.6c-0.7 0-1.2 0.3-1.6 0.8s-0.6 1.2-0.6 2.2c0 0.8 0.2 1.5 0.6 1.9s0.9 0.7 1.5 0.7 1.1-0.2 1.5-0.7 0.6-1.1 0.6-1.9v-0.9z"/>
		<path class="st11" d="m85.2 82.4c0 1.3-0.4 2.4-1.2 3.2s-1.8 1.2-3.1 1.2-2.3-0.4-3-1.1c-0.8-0.8-1.1-1.8-1.1-3.1 0-1.4 0.4-2.4 1.2-3.2s1.8-1.2 3.2-1.2c1.3 0 2.3 0.4 3 1.1s1 1.8 1 3.1zm-1.9 0c0-0.9-0.2-1.6-0.6-2.1s-1-0.7-1.7-0.7-1.3 0.2-1.7 0.7-0.6 1.2-0.6 2.1 0.2 1.6 0.6 2c0.4 0.5 1 0.7 1.7 0.7s1.3-0.2 1.7-0.7c0.4-0.3 0.6-1 0.6-2z"/>
		<path class="st11" d="m95.8 86.6h-2l-1.5-5.5c0-0.1-0.1-0.3-0.1-0.4 0-0.2 0-0.3-0.1-0.4 0 0.3-0.1 0.6-0.2 0.8l-1.6 5.5h-1.9l-2.4-8.3h2l1.5 5.8c0 0.1 0.1 0.4 0.1 0.8 0-0.4 0.1-0.6 0.1-0.8l1.7-5.8h1.8l1.5 5.8c0 0.2 0.1 0.4 0.1 0.8 0-0.4 0.1-0.7 0.1-0.8l1.4-5.8h1.8l-2.3 8.3z"/>
		<path class="st11" d="m104.6 84.2c0 0.8-0.3 1.4-0.9 1.9s-1.4 0.7-2.4 0.7c-0.3 0-0.7 0-1.1-0.1s-0.8-0.2-1-0.3v-1.8c0.3 0.2 0.7 0.4 1.1 0.6 0.4 0.1 0.8 0.2 1.1 0.2 0.9 0 1.3-0.3 1.3-0.9 0-0.2 0-0.4-0.1-0.5s-0.2-0.3-0.5-0.4l-1-0.5c-0.5-0.2-0.9-0.5-1.2-0.7s-0.5-0.5-0.6-0.8-0.2-0.6-0.2-1c0-0.7 0.3-1.3 0.9-1.8s1.3-0.7 2.3-0.7c0.3 0 0.6 0 1 0.1s0.7 0.1 0.9 0.2v1.7c-0.3-0.2-0.5-0.3-0.9-0.4-0.3-0.1-0.7-0.2-1-0.2-0.4 0-0.7 0.1-0.9 0.2-0.2 0.2-0.3 0.4-0.3 0.6 0 0.3 0.1 0.5 0.3 0.7s0.6 0.4 1.2 0.6c0.8 0.3 1.3 0.7 1.6 1 0.2 0.6 0.4 1.1 0.4 1.6z"/>
		<path class="st11" d="m45.4 94.1c0 0.7-0.2 1.4-0.5 2-0.4 0.6-0.9 1-1.5 1.4-0.7 0.3-1.4 0.5-2.3 0.5h-1.4v4.1h-1.9v-11.6h3.6c1.3 0 2.3 0.3 3 0.9 0.6 0.6 1 1.5 1 2.7zm-2 0c0-0.6-0.2-1.1-0.6-1.5s-1-0.5-1.8-0.5h-1.3v4.1h1.2c0.8 0 1.4-0.2 1.9-0.5 0.4-0.4 0.6-0.9 0.6-1.6z"/>
		<path class="st11" d="m52.5 102v-4.7c0-0.7-0.1-1.3-0.4-1.7s-0.7-0.6-1.2-0.6c-0.6 0-1 0.2-1.4 0.6s-0.5 0.9-0.5 1.6v4.7h-1.9v-12.1h1.9v5.2c0.6-1 1.5-1.5 2.6-1.5 0.9 0 1.6 0.3 2.1 0.9s0.7 1.4 0.7 2.5v5.1h-1.9z"/>
		<path class="st11" d="m64.6 97.8c0 1.3-0.4 2.4-1.2 3.2s-1.8 1.2-3.1 1.2-2.3-0.4-3-1.1c-0.8-0.8-1.1-1.8-1.1-3.1 0-1.4 0.4-2.4 1.2-3.2s1.8-1.2 3.2-1.2c1.3 0 2.3 0.4 3 1.1 0.6 0.8 1 1.8 1 3.1zm-2 0.1c0-0.9-0.2-1.6-0.6-2.1s-1-0.7-1.7-0.7-1.3 0.2-1.7 0.7-0.6 1.2-0.6 2.1 0.2 1.6 0.6 2c0.4 0.5 1 0.7 1.7 0.7s1.3-0.2 1.7-0.7c0.5-0.4 0.6-1.1 0.6-2z"/>
		<path class="st11" d="m71.9 102v-4.6c0-0.8-0.1-1.3-0.4-1.7s-0.7-0.6-1.3-0.6-1 0.2-1.4 0.6-0.5 1-0.5 1.6v4.7h-1.9v-8.2h1.9v1.3c0.6-1 1.5-1.5 2.7-1.5 0.9 0 1.5 0.3 2 0.8 0.5 0.6 0.7 1.4 0.7 2.5v5.1h-1.8z"/>
		<path class="st11" d="m77.4 98.4c0 0.7 0.3 1.3 0.7 1.7s1 0.6 1.8 0.6c0.5 0 0.9-0.1 1.3-0.2s0.8-0.3 1.1-0.6v1.6c-0.3 0.2-0.7 0.4-1.3 0.5-0.5 0.1-1.1 0.2-1.7 0.2-1.2 0-2.2-0.4-2.9-1.1s-1-1.8-1-3.1c0-0.9 0.2-1.6 0.5-2.3s0.8-1.2 1.4-1.5 1.3-0.6 2-0.6c1.1 0 2 0.3 2.6 1s0.9 1.7 0.9 2.9v0.9h-5.4zm3.8-1.4c0-0.7-0.2-1.2-0.5-1.5s-0.7-0.5-1.3-0.5c-0.5 0-0.9 0.2-1.3 0.6s-0.6 0.9-0.7 1.4h3.8z"/>
</svg>
