<?xml version="1.0" encoding="utf-8"?>
<!-- Generator: Adobe Illustrator 24.0.3, SVG Export Plug-In . SVG Version: 6.00 Build 0)  -->
<svg version="1.1" id="Layer_1" xmlns="http://www.w3.org/2000/svg" xmlns:xlink="http://www.w3.org/1999/xlink" x="0px" y="0px"
	 viewBox="0 0 315 128" style="enable-background:new 0 0 315 128;" xml:space="preserve">
<style type="text/css">
	.st0{fill:#009FE3;}
</style>
<g>
	<path class="st0" d="M238.5,57.11h-28.63l-15.58,34h28.63c22.91,0.19,32.22-8.62,35.32-15.38C261.66,68.25,258.7,57.11,238.5,57.11
		z M241.45,73.54c-2.2,8.51-14.78,9.08-19.05,9.08h-5.08l7.52-17h5.07C234.55,65.61,243.27,66.48,241.45,73.54z M187.45,57.11
		l-8.27,18.62L168,57.11h-19.58l-11.07,24.16l-5.59-24.4h-17.51c0,0-2.55,0.02-4.73,0.95c-1.7,0.72-3.2,1.98-3.2,1.98L89.93,74.23
		C79.8,82.2,62.07,86.8,57.11,87.03C33.52,88.1,28.6,71.99,30.24,64.37C34.44,44.7,64.96,40.05,81,40.05
		c7.59,0,13.82,1.5,18.64,2.83l4.64-8.26l-3.4-0.72c-4.24-0.53-10.82-1.96-22.07-1.99C33.32,31.75,9.97,44.52,2.86,60.88
		C-5.17,79.37,8.39,96.1,46.49,96.1c6.92,0,20.58-0.6,33.43-5.23h12.41l6.35-5.64h19.22l0.81,6.03h20.93l-0.02-0.14h11.18
		l8.93-19.52l11.7,19.51l18.16,0.01l15.57-34L187.45,57.11L187.45,57.11z M105.98,78.4l10.22-9.73l0.98,9.49L105.98,78.4z
		 M294.62,56.86l-14.29,14.23l-4.82-13.98H258l11.42,25.92l-11.35,11.25h15.01c0,0,2.92-0.36,4.13-0.79
		c1.21-0.44,2.93-2.18,2.93-2.18l34.23-34.4L294.62,56.86z"/>
</g>
</svg>
