<?xml version="1.0" encoding="utf-8"?>
<!-- Generator: Adobe Illustrator 22.1.0, SVG Export Plug-In . SVG Version: 6.00 Build 0)  -->
<svg version="1.1" id="Layer_1" xmlns="http://www.w3.org/2000/svg" xmlns:xlink="http://www.w3.org/1999/xlink" x="0px" y="0px"
	 viewBox="0 0 316 128" style="enable-background:new 0 0 316 128;" xml:space="preserve">
<style type="text/css">
	.st0{clip-path:url(#SVGID_2_);}
	.st1{clip-path:url(#SVGID_4_);fill:url(#SVGID_5_);}
	.st2{clip-path:url(#SVGID_7_);fill:url(#SVGID_8_);}
	.st3{clip-path:url(#SVGID_10_);fill:url(#SVGID_11_);}
	.st4{clip-path:url(#SVGID_13_);fill-rule:evenodd;clip-rule:evenodd;fill:#712023;}
	.st5{clip-path:url(#SVGID_13_);fill:#712023;}
	.st6{clip-path:url(#SVGID_13_);fill-rule:evenodd;clip-rule:evenodd;fill:#FFFFFF;}
	.st7{clip-path:url(#SVGID_13_);fill:#FFFFFF;}
	.st8{clip-path:url(#SVGID_15_);fill:url(#SVGID_16_);}
	.st9{clip-path:url(#SVGID_18_);fill:url(#SVGID_19_);}
	.st10{clip-path:url(#SVGID_21_);fill:url(#SVGID_22_);}
</style>
<g id="SYGNET_1_">
	<g>
		<defs>
			<rect id="SVGID_1_" x="12.3" y="19.5" width="91.1" height="89"/>
		</defs>
		<clipPath id="SVGID_2_">
			<use xlink:href="#SVGID_1_"  style="overflow:visible;"/>
		</clipPath>
		<g class="st0">
			<defs>
				<path id="SVGID_3_" d="M14.1,63.3c0,21.9,19.6,43.8,43.8,43.8c24.2,0,43.8-19.6,43.8-43.8c0-24.2-19.6-43.8-43.8-43.8
					C33.7,19.5,14.1,39.1,14.1,63.3"/>
			</defs>
			<clipPath id="SVGID_4_">
				<use xlink:href="#SVGID_3_"  style="overflow:visible;"/>
			</clipPath>
			
				<linearGradient id="SVGID_5_" gradientUnits="userSpaceOnUse" x1="-0.5008" y1="-0.6586" x2="0.2364" y2="-0.6586" gradientTransform="matrix(-97.5652 -97.5652 97.5652 -97.5652 105.5399 -17.5891)">
				<stop  offset="0" style="stop-color:#FFFFFF"/>
				<stop  offset="4.733700e-02" style="stop-color:#D6374A"/>
				<stop  offset="5.263562e-02" style="stop-color:#D43749"/>
				<stop  offset="8.098190e-02" style="stop-color:#CD3547"/>
				<stop  offset="0.1598" style="stop-color:#CB3546"/>
				<stop  offset="0.4379" style="stop-color:#B9323F"/>
				<stop  offset="0.503" style="stop-color:#B5313D"/>
				<stop  offset="0.6923" style="stop-color:#A92F38"/>
				<stop  offset="0.8343" style="stop-color:#A12D35"/>
				<stop  offset="1" style="stop-color:#972B31"/>
				<stop  offset="1" style="stop-color:#712120"/>
			</linearGradient>
			<polygon class="st1" points="145.5,63.3 57.9,-24.3 -29.7,63.3 57.9,150.9 			"/>
		</g>
		<g class="st0">
			<defs>
				<path id="SVGID_6_" d="M15.1,63.3c0,23.6,19.2,42.8,42.8,42.8c23.6,0,42.8-19.2,42.8-42.8c0-23.6-19.2-42.8-42.8-42.8
					C34.3,20.5,15.1,39.7,15.1,63.3"/>
			</defs>
			<clipPath id="SVGID_7_">
				<use xlink:href="#SVGID_6_"  style="overflow:visible;"/>
			</clipPath>
			
				<linearGradient id="SVGID_8_" gradientUnits="userSpaceOnUse" x1="0.7224" y1="0.4839" x2="1.4596" y2="0.4839" gradientTransform="matrix(94.5558 128.2294 -128.2294 94.5558 23.1442 -113.7509)">
				<stop  offset="0" style="stop-color:#FFFFFF"/>
				<stop  offset="0.5148" style="stop-color:#D6374A"/>
				<stop  offset="0.6521" style="stop-color:#C93445"/>
				<stop  offset="0.9077" style="stop-color:#A52E37"/>
				<stop  offset="1" style="stop-color:#972B31"/>
				<stop  offset="1" style="stop-color:#712120"/>
			</linearGradient>
			<polygon class="st2" points="-25.8,50.6 45.3,146.9 141.6,75.9 70.5,-20.4 			"/>
		</g>
		<g class="st0">
			<defs>
				<path id="SVGID_9_" d="M15.9,63.3c0,23.2,18.8,42,42,42c23.2,0,42-18.8,42-42c0-23.2-18.8-42-42-42
					C34.7,21.3,15.9,40.1,15.9,63.3"/>
			</defs>
			<clipPath id="SVGID_10_">
				<use xlink:href="#SVGID_9_"  style="overflow:visible;"/>
			</clipPath>
			
				<linearGradient id="SVGID_11_" gradientUnits="userSpaceOnUse" x1="0.7341" y1="0.4931" x2="1.4713" y2="0.4931" gradientTransform="matrix(92.7918 125.8373 -125.8373 92.7918 23.8657 -112.7725)">
				<stop  offset="0" style="stop-color:#FFFFFF"/>
				<stop  offset="0.2249" style="stop-color:#D6374A"/>
				<stop  offset="0.4442" style="stop-color:#C93445"/>
				<stop  offset="0.8525" style="stop-color:#A52E37"/>
				<stop  offset="1" style="stop-color:#972B31"/>
				<stop  offset="1" style="stop-color:#712120"/>
			</linearGradient>
			<polygon class="st3" points="-24.2,50.9 45.5,145.4 140,75.7 70.3,-18.8 			"/>
		</g>
		<g class="st0">
			<defs>
				<rect id="SVGID_12_" x="12.3" y="19.5" width="91.1" height="89"/>
			</defs>
			<clipPath id="SVGID_13_">
				<use xlink:href="#SVGID_12_"  style="overflow:visible;"/>
			</clipPath>
			<path class="st4" d="M51,74.4c-0.4,2.5,0.8,3.8,3,3.2c1.5-0.5,2.9-1.6,3.8-3.2l-2.1,0c-0.4,0.6-0.9,0.9-1.2,1
				c-0.5,0.1-1.1,0.1-1.1-1H51z M60.1,74.4c0.5,0.7,1.4,0.9,2.6,0.5c0.4-0.1,0.8-0.3,1.2-0.5L60.1,74.4z"/>
			<path class="st4" d="M53.3,74.4c0-0.3,0-0.6,0.1-1c0.4-1.9,1.4-2.7,2-2.8c0.6-0.2,1.4,0,1.1,2c-0.2,0.8-0.4,1.4-0.7,1.9l2.1,0
				c0.5-0.8,0.8-1.7,1-2.6c0.5-2.7-0.7-4.1-3-3.4c-2.3,0.7-4.2,3-4.8,5.7c0,0.1,0,0.2,0,0.3L53.3,74.4z M64,74.4
				c1.7-1,3.1-3,3.5-5.2c0.5-2.7-0.7-4.1-3-3.4c-2.3,0.7-4.2,3-4.8,5.7c-0.2,1.3-0.1,2.3,0.4,2.9H64z M76.6,61.9l-2.7,0.8l-2.6,6.1
				l0,0l-0.2-5.1l-2.6,0.7l0.7,8.5l2.8-1L76.6,61.9z M77.8,61.5l5.2-1.6l-0.5,2.3l-2.7,1l-0.2,1.1l2.3-0.9l-0.4,2.3l-2.4,0.7
				l-0.2,1.1l2.8-1l-0.6,2.6l-5.4,1.6L77.8,61.5z M62.1,70.8c0.4-1.9,1.4-2.7,2-2.8c0.6-0.2,1.4,0,1,2c-0.4,1.9-1.4,2.7-2,2.8
				C62.5,72.9,61.7,72.8,62.1,70.8 M83.5,68.4l2.7-0.8L87,64l1.2-0.1c1-0.3,0.9,0.6,0.8,1.4c-0.1,0.5-0.1,0.9-0.1,1.3l2.6-0.7
				c-0.1-0.3,0.1-1.4,0.1-1.8c0.1-1.1-0.1-1.8-0.8-1.9c0.9-0.6,1.5-1.7,1.7-2.6c0.4-1.7-0.7-2.2-2.2-1.8l-4.9,1.3L83.5,68.4z
				 M87.6,60.5l1.2-0.3c1-0.3,1.2,0,1.1,0.5c-0.2,0.8-0.8,1.1-1.3,1.2l-1.4,0.4L87.6,60.5z"/>
			<path class="st5" d="M20.6,64.6c0-21.1,17.1-38.2,38.2-38.2C79.9,26.4,97,43.5,97,64.6c0,21.1-17.1,38.2-38.2,38.2
				C37.7,102.8,20.6,85.7,20.6,64.6 M92.9,54.3L50.6,67.7L43,96.4c4.8,2.4,10.2,3.7,15.9,3.7c19.7,0,35.6-15.9,35.6-35.6
				C94.4,61,93.9,57.6,92.9,54.3 M49.4,30.3L38.9,69.6l9.2-2.9l6.2-23.3l3.1-0.9l-6.2,23.2l41.1-13C87.4,38.9,74.3,29,58.8,29
				C55.6,29,52.4,29.5,49.4,30.3 M24.5,74.1l11.2-3.6l10.5-39.3c-13.5,5.1-23,18.1-23,33.3C23.2,67.9,23.7,71.1,24.5,74.1
				 M40.5,95.1l7.1-26.4l-9.2,2.9l-2.7,10.2l-3.1,0.9l2.7-10.1l-10.2,3.2C27.8,83.9,33.3,90.7,40.5,95.1"/>
			<path class="st6" d="M50,73.7c-0.4,2.5,0.8,3.8,3,3.1c1.5-0.4,2.9-1.6,3.8-3.1h-2.1c-0.4,0.6-0.9,0.9-1.2,1
				c-0.5,0.1-1.1,0.1-1.1-1H50z M59.1,73.7c0.5,0.7,1.4,0.9,2.6,0.5c0.4-0.1,0.8-0.3,1.2-0.5L59.1,73.7z"/>
			<path class="st6" d="M52.3,73.7c0-0.3,0-0.6,0.1-1c0.4-1.9,1.4-2.7,2-2.8c0.6-0.2,1.4,0,1,2c-0.2,0.8-0.4,1.4-0.7,1.9l2.1,0
				c0.5-0.8,0.8-1.7,1-2.6c0.5-2.7-0.7-4.1-3-3.4c-2.3,0.7-4.2,3-4.8,5.7c0,0.1,0,0.2-0.1,0.3L52.3,73.7z M62.9,73.7
				c1.7-1,3.1-3,3.5-5.2c0.5-2.7-0.7-4.1-3-3.4c-2.3,0.7-4.2,3-4.8,5.7c-0.2,1.3-0.1,2.3,0.4,2.9H62.9z M75.6,61.2L72.9,62l-2.6,6.1
				l0,0l-0.2-5.1l-2.6,0.7l0.7,8.5l2.8-1L75.6,61.2z M76.8,60.8l5.2-1.6l-0.5,2.3l-2.7,1l-0.2,1.1l2.3-0.9L80.5,65l-2.4,0.7
				l-0.2,1.1l2.8-1l-0.6,2.6l-5.4,1.6L76.8,60.8z M61.1,70.1c0.4-1.9,1.4-2.7,2-2.8c0.6-0.2,1.4,0,1.1,2c-0.4,1.9-1.4,2.7-2,2.8
				C61.5,72.2,60.7,72,61.1,70.1 M82.5,67.6l2.7-0.8l0.8-3.6l1.2-0.1c1-0.3,0.9,0.6,0.8,1.4c-0.1,0.5-0.1,0.9-0.1,1.3l2.6-0.7
				c-0.1-0.3,0.1-1.4,0.1-1.8c0.1-1.1-0.1-1.8-0.8-1.9c0.9-0.6,1.5-1.7,1.7-2.6c0.4-1.7-0.7-2.2-2.2-1.8l-4.9,1.3L82.5,67.6z
				 M86.5,59.8l1.2-0.3c1-0.3,1.2,0,1.1,0.5c-0.2,0.8-0.8,1.1-1.3,1.2l-1.4,0.4L86.5,59.8z"/>
			<path class="st7" d="M19.6,63.9c0-21.1,17.1-38.2,38.2-38.2C78.9,25.7,96,42.8,96,63.9c0,21.1-17.1,38.2-38.2,38.2
				C36.7,102.1,19.6,85,19.6,63.9 M91.9,53.6L49.6,67l-7.7,28.7c4.8,2.4,10.2,3.7,15.9,3.7c19.6,0,35.6-15.9,35.6-35.6
				C93.4,60.3,92.9,56.9,91.9,53.6 M48.4,29.5L37.9,68.9l9.2-2.9l6.2-23.3l3.1-0.9l-6.2,23.2l41.1-13c-4.9-13.8-18.1-23.6-33.5-23.6
				C54.6,28.3,51.4,28.7,48.4,29.5 M23.5,73.4l11.2-3.6l10.5-39.3c-13.5,5.1-23.1,18.1-23.1,33.3C22.2,67.2,22.7,70.4,23.5,73.4
				 M39.4,94.3L46.5,68l-9.2,2.9l-2.7,10.2L31.5,82l2.7-10.1L24,75.1C26.7,83.2,32.3,90,39.4,94.3"/>
		</g>
		<g class="st0">
			<defs>
				<path id="SVGID_14_" d="M54.2,74.5c-0.5,0.1-1.1,0.1-1.1-1l-2.3,0c-0.4,2.5,0.8,3.8,3,3.2c1.5-0.5,2.9-1.6,3.8-3.2l-2.1,0
					C55,74.1,54.6,74.4,54.2,74.5 M59.9,73.5c0.5,0.7,1.4,0.9,2.6,0.5c0.4-0.1,0.8-0.3,1.2-0.5H59.9z"/>
			</defs>
			<clipPath id="SVGID_15_">
				<use xlink:href="#SVGID_14_"  style="overflow:visible;"/>
			</clipPath>
			
				<linearGradient id="SVGID_16_" gradientUnits="userSpaceOnUse" x1="-0.3017" y1="-0.7498" x2="0.4356" y2="-0.7498" gradientTransform="matrix(-119.4865 -72.4063 72.4063 -119.4865 116.3837 -11.1411)">
				<stop  offset="0" style="stop-color:#FFFFFF"/>
				<stop  offset="1.775100e-02" style="stop-color:#FFFFFF"/>
				<stop  offset="6.960749e-02" style="stop-color:#F8F8F8"/>
				<stop  offset="0.1467" style="stop-color:#E4E4E5"/>
				<stop  offset="0.239" style="stop-color:#C3C4C6"/>
				<stop  offset="0.3136" style="stop-color:#A3A5A8"/>
				<stop  offset="0.3543" style="stop-color:#ADAFB1"/>
				<stop  offset="0.6109" style="stop-color:#E8E8E9"/>
				<stop  offset="0.7337" style="stop-color:#FFFFFF"/>
				<stop  offset="0.8333" style="stop-color:#FDFDFD"/>
				<stop  offset="0.8692" style="stop-color:#F6F6F6"/>
				<stop  offset="0.8948" style="stop-color:#EBEAEB"/>
				<stop  offset="0.9154" style="stop-color:#DADADA"/>
				<stop  offset="0.9332" style="stop-color:#C5C4C4"/>
				<stop  offset="0.9488" style="stop-color:#AAA8A9"/>
				<stop  offset="0.963" style="stop-color:#8A8888"/>
				<stop  offset="0.9761" style="stop-color:#656263"/>
				<stop  offset="0.9877" style="stop-color:#3D393A"/>
				<stop  offset="0.9941" style="stop-color:#231F20"/>
				<stop  offset="1" style="stop-color:#231F20"/>
			</linearGradient>
			<polygon class="st8" points="65.4,74.5 54,67.6 48.7,76.3 60.2,83.2 			"/>
		</g>
		<g class="st0">
			<defs>
				<path id="SVGID_17_" d="M55.6,67.5c-2.3,0.7-4.2,3-4.8,5.7c0,0.1,0,0.2-0.1,0.3h2.3c0-0.3,0-0.6,0.1-1c0.4-1.9,1.4-2.7,2-2.8
					c0.6-0.2,1.4,0,1,2c-0.2,0.8-0.4,1.4-0.7,1.9l2.1,0c0.5-0.8,0.8-1.7,1-2.6c0.4-2.2-0.3-3.6-1.9-3.6C56.3,67.3,56,67.4,55.6,67.5
					 M61.9,69.9c0.4-1.9,1.4-2.7,2-2.8c0.6-0.2,1.4,0,1,2c-0.4,1.9-1.4,2.7-2,2.8c-0.1,0-0.2,0.1-0.3,0.1
					C62.1,71.9,61.6,71.5,61.9,69.9 M64.3,64.9c-2.3,0.7-4.2,3-4.8,5.7c-0.3,1.3-0.1,2.3,0.4,2.9l3.9,0c1.7-1,3.1-3,3.5-5.2
					c0.4-2.2-0.3-3.6-1.9-3.6C65,64.7,64.7,64.8,64.3,64.9 M73.7,61.8L71.1,68l0,0l-0.2-5.1l-2.6,0.7l0.7,8.5l2.8-1L76.4,61
					L73.7,61.8z M77.6,60.6l-2,9.3l5.4-1.6l0.6-2.6l-2.8,1l0.2-1.1l2.4-0.7l0.4-2.3l-2.3,0.9l0.2-1.1l2.7-1l0.5-2.3L77.6,60.6z
					 M87.4,59.6l1.2-0.3c1-0.3,1.2,0,1.1,0.5c-0.2,0.8-0.8,1.1-1.3,1.2L87,61.4L87.4,59.6z M90.1,56.9l-4.9,1.3l-1.9,9.3l2.7-0.8
					l0.8-3.6l1.2-0.1c1-0.3,0.9,0.6,0.8,1.4c-0.1,0.5-0.1,0.9-0.1,1.3l2.6-0.7c-0.1-0.4,0.1-1.4,0.1-1.8c0.1-1.1-0.1-1.8-0.8-1.9
					c0.9-0.6,1.5-1.7,1.7-2.6c0.3-1.3-0.3-1.9-1.3-1.9C90.7,56.7,90.4,56.8,90.1,56.9"/>
			</defs>
			<clipPath id="SVGID_18_">
				<use xlink:href="#SVGID_17_"  style="overflow:visible;"/>
			</clipPath>
			
				<linearGradient id="SVGID_19_" gradientUnits="userSpaceOnUse" x1="-0.3006" y1="-0.7893" x2="0.4366" y2="-0.7893" gradientTransform="matrix(-119.8186 -72.6076 72.6076 -119.8186 127.9703 -30.0861)">
				<stop  offset="0" style="stop-color:#FFFFFF"/>
				<stop  offset="1.775100e-02" style="stop-color:#FFFFFF"/>
				<stop  offset="6.960749e-02" style="stop-color:#F8F8F8"/>
				<stop  offset="0.1467" style="stop-color:#E4E4E5"/>
				<stop  offset="0.239" style="stop-color:#C3C4C6"/>
				<stop  offset="0.3136" style="stop-color:#A3A5A8"/>
				<stop  offset="0.3543" style="stop-color:#ADAFB1"/>
				<stop  offset="0.6109" style="stop-color:#E8E8E9"/>
				<stop  offset="0.7337" style="stop-color:#FFFFFF"/>
				<stop  offset="0.8333" style="stop-color:#FDFDFD"/>
				<stop  offset="0.8692" style="stop-color:#F6F6F6"/>
				<stop  offset="0.8948" style="stop-color:#EBEAEB"/>
				<stop  offset="0.9154" style="stop-color:#DADADA"/>
				<stop  offset="0.9332" style="stop-color:#C5C4C4"/>
				<stop  offset="0.9488" style="stop-color:#AAA8A9"/>
				<stop  offset="0.963" style="stop-color:#8A8888"/>
				<stop  offset="0.9761" style="stop-color:#656263"/>
				<stop  offset="0.9877" style="stop-color:#3D393A"/>
				<stop  offset="0.9941" style="stop-color:#231F20"/>
				<stop  offset="1" style="stop-color:#231F20"/>
			</linearGradient>
			<polygon class="st9" points="100,61.2 62,38.2 43.3,69 81.4,92 			"/>
		</g>
		<g class="st0">
			<defs>
				<path id="SVGID_20_" d="M35.4,81l2.7-10.2l9.2-2.9l-7.1,26.4C33.1,89.8,27.6,83,24.9,74.9L35,71.7l-2.7,10.1L35.4,81z
					 M42.8,95.5l7.7-28.7l42.2-13.4c1,3.2,1.5,6.7,1.5,10.3c0,19.6-15.9,35.6-35.6,35.6C52.9,99.3,47.5,97.9,42.8,95.5 M23,63.7
					c0-15.2,9.6-28.2,23.1-33.3L35.6,69.7l-11.2,3.6C23.5,70.2,23,67,23,63.7 M49.2,29.4c3-0.8,6.1-1.3,9.4-1.3
					c15.5,0,28.6,9.8,33.5,23.6L51,64.8l6.2-23.2l-3.1,0.9l-6.2,23.3l-9.2,2.9L49.2,29.4z M20.4,63.7c0,21.1,17.1,38.2,38.2,38.2
					c21.1,0,38.2-17.1,38.2-38.2c0-21.1-17.1-38.2-38.2-38.2C37.5,25.5,20.4,42.6,20.4,63.7"/>
			</defs>
			<clipPath id="SVGID_21_">
				<use xlink:href="#SVGID_20_"  style="overflow:visible;"/>
			</clipPath>
			
				<linearGradient id="SVGID_22_" gradientUnits="userSpaceOnUse" x1="-0.3011" y1="-0.7764" x2="0.4361" y2="-0.7764" gradientTransform="matrix(-119.6233 -72.4892 72.4892 -119.6233 124.0586 -23.6365)">
				<stop  offset="0" style="stop-color:#FFFFFF"/>
				<stop  offset="1.775100e-02" style="stop-color:#FFFFFF"/>
				<stop  offset="6.960749e-02" style="stop-color:#F8F8F8"/>
				<stop  offset="0.1467" style="stop-color:#E4E4E5"/>
				<stop  offset="0.239" style="stop-color:#C3C4C6"/>
				<stop  offset="0.3136" style="stop-color:#A3A5A8"/>
				<stop  offset="0.3543" style="stop-color:#ADAFB1"/>
				<stop  offset="0.6109" style="stop-color:#E8E8E9"/>
				<stop  offset="0.7337" style="stop-color:#FFFFFF"/>
				<stop  offset="0.8333" style="stop-color:#FDFDFD"/>
				<stop  offset="0.8692" style="stop-color:#F6F6F6"/>
				<stop  offset="0.8948" style="stop-color:#EBEAEB"/>
				<stop  offset="0.9154" style="stop-color:#DADADA"/>
				<stop  offset="0.9332" style="stop-color:#C5C4C4"/>
				<stop  offset="0.9488" style="stop-color:#AAA8A9"/>
				<stop  offset="0.963" style="stop-color:#8A8888"/>
				<stop  offset="0.9761" style="stop-color:#656263"/>
				<stop  offset="0.9877" style="stop-color:#3D393A"/>
				<stop  offset="0.9941" style="stop-color:#231F20"/>
				<stop  offset="1" style="stop-color:#231F20"/>
			</linearGradient>
			<polygon class="st10" points="130.7,46 40.9,-8.4 -13.5,81.4 76.3,135.8 			"/>
		</g>
		<g class="st0">
			<defs>
				<rect id="SVGID_23_" x="12.3" y="19.5" width="91.1" height="89"/>
			</defs>
			<clipPath id="SVGID_24_">
				<use xlink:href="#SVGID_23_"  style="overflow:visible;"/>
			</clipPath>
		</g>
	</g>
</g>
<g>
	<path d="M118.7,46.8h3.7v15.4H139V46.8h3.7v34.4H139V65.6h-16.6v15.6h-3.7V46.8z"/>
	<path d="M148.1,64.2v-0.4c0-10.1,6.1-17.6,14.8-17.6s14.7,7.4,14.7,17.5v0.4c0,10.1-6,17.6-14.8,17.6
		C154.1,81.7,148.1,74.3,148.1,64.2z M173.9,64.2v-0.3c0-8.3-4.7-14.2-11-14.2c-6.3,0-11,5.8-11,14.2v0.3c0,8.3,4.7,14.2,11,14.2
		S173.9,72.5,173.9,64.2z"/>
	<path d="M181.8,64.2v-0.4c0-10.1,6.1-17.6,14.8-17.6c8.7,0,14.7,7.4,14.7,17.5v0.4c0,10.1-6,17.6-14.8,17.6
		C187.8,81.7,181.8,74.3,181.8,64.2z M207.6,64.2v-0.3c0-8.3-4.7-14.2-11-14.2c-6.3,0-11,5.8-11,14.2v0.3c0,8.3,4.7,14.2,11,14.2
		S207.6,72.5,207.6,64.2z"/>
	<path d="M212.6,46.8h4l10.1,29.3l10.2-29.3h3.9l-12.4,34.6H225L212.6,46.8z"/>
	<path d="M245.1,46.8h21v3.4h-17.3v12h15.5v3.3h-15.5v12.3h17.5v3.4h-21.2V46.8z"/>
	<path d="M271.4,46.8h11.7c3.9,0,7.1,1.2,9,3.2c1.7,1.7,2.7,4.2,2.7,7.1v0.1c0,5.5-3.4,8.7-8.2,9.9l9.2,14.1h-4.4l-8.6-13.4h-7.8
		v13.4h-3.7V46.8z M282.5,64.5c5.6,0,8.7-2.8,8.7-7.2v-0.1c0-4.5-3.1-7-8.3-7h-7.8v14.3H282.5z"/>
</g>
</svg>
